CascadiaCode - Box Drawing.ufo
<glyph name="uni2501" format="1">
  <advance width="1200"/>
  <unicode hex="2501"/>
  <outline>
    <contour>
      <point x="-20" y="720" type="line"/>
      <point x="-20" y="368" type="line"/>
      <point x="1220" y="368" type="line"/>
      <point x="1220" y="720" type="line"/>
    </contour>
  </outline>
</glyph>
<glyph name="uni2503" format="1">
  <advance width="1200"/>
  <unicode hex="2503"/>
  <outline>
    <contour>
      <point x="780" y="-500" type="line"/>
      <point x="780" y="1588" type="line"/>
      <point x="420" y="1588" type="line"/>
      <point x="420" y="-500" type="line"/>
    </contour>
  </outline>
</glyph>
<glyph name="uni2504" format="1">
  <advance width="1200"/>
  <unicode hex="2504"/>
  <outline>
    <contour>
      <point x="860" y="632" type="line"/>
      <point x="860" y="456" type="line"/>
      <point x="1140" y="456" type="line"/>
      <point x="1140" y="632" type="line"/>
    </contour>
    <contour>
      <point x="740" y="456" type="line"/>
      <point x="740" y="632" type="line"/>
      <point x="460" y="632" type="line"/>
      <point x="460" y="456" type="line"/>
    </contour>
    <contour>
      <point x="60" y="632" type="line"/>
      <point x="60" y="456" type="line"/>
      <point x="340" y="456" type="line"/>
      <point x="340" y="632" type="line"/>
    </contour>
  </outline>
</glyph>
<glyph name="uni2506" format="1">
  <advance width="1200"/>
  <unicode hex="2506"/>
  <outline>
    <contour>
      <point x="510" y="-420" type="line"/>
      <point x="690" y="-420" type="line"/>
      <point x="690" y="143" type="line"/>
      <point x="510" y="143" type="line"/>
    </contour>
    <contour>
      <point x="510" y="945" type="line"/>
      <point x="690" y="945" type="line"/>
      <point x="690" y="1508" type="line"/>
      <point x="510" y="1508" type="line"/>
    </contour>
    <contour>
      <point x="690" y="825" type="line"/>
      <point x="510" y="825" type="line"/>
      <point x="510" y="263" type="line"/>
      <point x="690" y="263" type="line"/>
    </contour>
  </outline>
</glyph>
<glyph name="uni2509" format="1">
  <advance width="1200"/>
  <unicode hex="2509"/>
  <outline>
    <contour>
      <point x="840" y="368" type="line"/>
      <point x="840" y="720" type="line"/>
      <point x="660" y="720" type="line"/>
      <point x="660" y="368" type="line"/>
    </contour>
    <contour>
      <point x="60" y="368" type="line"/>
      <point x="240" y="368" type="line"/>
      <point x="240" y="720" type="line"/>
      <point x="60" y="720" type="line"/>
    </contour>
    <contour>
      <point x="360" y="368" type="line"/>
      <point x="540" y="368" type="line"/>
      <point x="540" y="720" type="line"/>
      <point x="360" y="720" type="line"/>
    </contour>
    <contour>
      <point x="1140" y="368" type="line"/>
      <point x="1140" y="720" type="line"/>
      <point x="960" y="720" type="line"/>
      <point x="960" y="368" type="line"/>
    </contour>
  </outline>
</glyph>
<glyph name="uni250A" format="1">
  <advance width="1200"/>
  <unicode hex="250A"/>
  <outline>
    <contour>
      <point x="510" y="996" type="line"/>
      <point x="510" y="604" type="line"/>
      <point x="690" y="604" type="line"/>
      <point x="690" y="996" type="line"/>
    </contour>
    <contour>
      <point x="510" y="-420" type="line"/>
      <point x="690" y="-420" type="line"/>
      <point x="690" y="-28" type="line"/>
      <point x="510" y="-28" type="line"/>
    </contour>
    <contour>
      <point x="510" y="484" type="line"/>
      <point x="510" y="92" type="line"/>
      <point x="690" y="92" type="line"/>
      <point x="690" y="484" type="line"/>
    </contour>
    <contour>
      <point x="510" y="1116" type="line"/>
      <point x="690" y="1116" type="line"/>
      <point x="690" y="1508" type="line"/>
      <point x="510" y="1508" type="line"/>
    </contour>
  </outline>
</glyph>
<glyph name="uni2520" format="1">
  <advance width="1200"/>
  <unicode hex="2520"/>
  <outline>
    <contour>
      <point x="420" y="-500" type="line"/>
      <point x="780" y="-500" type="line"/>
      <point x="780" y="456" type="line"/>
      <point x="1220" y="456" type="line"/>
      <point x="1220" y="632" type="line"/>
      <point x="780" y="632" type="line"/>
      <point x="780" y="1588" type="line"/>
      <point x="420" y="1588" type="line"/>
    </contour>
  </outline>
</glyph>
<glyph name="uni2528" format="1">
  <advance width="1200"/>
  <unicode hex="2528"/>
  <outline>
    <contour>
      <point x="420" y="-500" type="line"/>
      <point x="780" y="-500" type="line"/>
      <point x="780" y="1588" type="line"/>
      <point x="420" y="1588" type="line"/>
      <point x="420" y="632" type="line"/>
      <point x="-20" y="632" type="line"/>
      <point x="-20" y="456" type="line"/>
      <point x="420" y="456" type="line"/>
    </contour>
  </outline>
</glyph>
<glyph name="uni2529" format="1">
  <advance width="1200"/>
  <unicode hex="2529"/>
  <outline>
    <contour>
      <point x="510" y="-500" type="line"/>
      <point x="690" y="-500" type="line"/>
      <point x="690" y="368" type="line"/>
      <point x="780" y="368" type="line"/>
      <point x="780" y="1588" type="line"/>
      <point x="420" y="1588" type="line"/>
      <point x="420" y="720" type="line"/>
      <point x="-20" y="720" type="line"/>
      <point x="-20" y="368" type="line"/>
      <point x="510" y="368" type="line"/>
    </contour>
  </outline>
</glyph>
<glyph name="uni254C" format="1">
  <advance width="1200"/>
  <unicode hex="254C"/>
  <outline>
    <contour>
      <point x="660" y="632" type="line"/>
      <point x="660" y="456" type="line"/>
      <point x="1140" y="456" type="line"/>
      <point x="1140" y="632" type="line"/>
    </contour>
    <contour>
      <point x="60" y="632" type="line"/>
      <point x="60" y="456" type="line"/>
      <point x="540" y="456" type="line"/>
      <point x="540" y="632" type="line"/>
    </contour>
  </outline>
</glyph>
<glyph name="uni254D" format="1">
  <advance width="1200"/>
  <unicode hex="254D"/>
  <outline>
    <contour>
      <point x="60" y="720" type="line"/>
      <point x="60" y="368" type="line"/>
      <point x="540" y="368" type="line"/>
      <point x="540" y="720" type="line"/>
    </contour>
    <contour>
      <point x="660" y="720" type="line"/>
      <point x="660" y="368" type="line"/>
      <point x="1140" y="368" type="line"/>
      <point x="1140" y="720" type="line"/>
    </contour>
  </outline>
</glyph>
<glyph name="uni254F" format="1">
  <advance width="1200"/>
  <unicode hex="254F"/>
  <outline>
    <contour>
      <point x="780" y="1508" type="line"/>
      <point x="420" y="1508" type="line"/>
      <point x="420" y="604" type="line"/>
      <point x="780" y="604" type="line"/>
    </contour>
    <contour>
      <point x="420" y="484" type="line"/>
      <point x="420" y="-420" type="line"/>
      <point x="780" y="-420" type="line"/>
      <point x="780" y="484" type="line"/>
    </contour>
  </outline>
</glyph>
<glyph name="SF250000" format="1">
  <advance width="1200"/>
  <unicode hex="2557"/>
  <outline>
    <contour>
      <point x="510" y="-500" type="line"/>
      <point x="510" y="456" type="line"/>
      <point x="-20" y="456" type="line"/>
      <point x="-20" y="280" type="line"/>
      <point x="330" y="280" type="line"/>
      <point x="330" y="-500" type="line"/>
    </contour>
    <contour>
      <point x="870" y="-500" type="line"/>
      <point x="870" y="808" type="line"/>
      <point x="-20" y="808" type="line"/>
      <point x="-20" y="632" type="line"/>
      <point x="690" y="632" type="line"/>
      <point x="690" y="-500" type="line"/>
    </contour>
  </outline>
</glyph>
<glyph name="SF260000" format="1">
  <advance width="1200"/>
  <unicode hex="255D"/>
  <outline>
    <contour>
      <point x="330" y="808" type="line"/>
      <point x="-20" y="808" type="line"/>
      <point x="-20" y="632" type="line"/>
      <point x="510" y="632" type="line"/>
      <point x="510" y="1588" type="line"/>
      <point x="330" y="1588" type="line"/>
    </contour>
    <contour>
      <point x="690" y="456" type="line"/>
      <point x="-20" y="456" type="line"/>
      <point x="-20" y="280" type="line"/>
      <point x="870" y="280" type="line"/>
      <point x="870" y="1588" type="line"/>
      <point x="690" y="1588" type="line"/>
    </contour>
  </outline>
</glyph>
<glyph name="SF480000" format="1">
  <advance width="1200"/>
  <unicode hex="2565"/>
  <outline>
    <contour>
      <point x="870" y="-500" type="line"/>
      <point x="870" y="456" type="line"/>
      <point x="1220" y="456" type="line"/>
      <point x="1220" y="632" type="line"/>
      <point x="-20" y="632" type="line"/>
      <point x="-20" y="456" type="line"/>
      <point x="330" y="456" type="line"/>
      <point x="330" y="-500" type="line"/>
      <point x="510" y="-500" type="line"/>
      <point x="510" y="456" type="line"/>
      <point x="690" y="456" type="line"/>
      <point x="690" y="-500" type="line"/>
    </contour>
  </outline>
</glyph>
<glyph name="uni256E" format="1">
  <advance width="1199.9"/>
  <unicode hex="256E"/>
  <outline>
    <contour>
      <point x="690" y="-500" type="line"/>
      <point x="690" y="286" type="line" smooth="yes"/>
      <point x="690" y="477"/>
      <point x="535" y="632"/>
      <point x="344" y="632" type="curve" smooth="yes"/>
      <point x="-20" y="632" type="line"/>
      <point x="-20" y="456" type="line"/>
      <point x="342" y="456" type="line" smooth="yes"/>
      <point x="434" y="456"/>
      <point x="510" y="382"/>
      <point x="510" y="288" type="curve" smooth="yes"/>
      <point x="510" y="-500" type="line"/>
    </contour>
  </outline>
</glyph>
<glyph name="uni256F" format="1">
  <advance width="1199.9"/>
  <unicode hex="256F"/>
  <outline>
    <contour>
      <point x="510" y="800" type="line" smooth="yes"/>
      <point x="510" y="706"/>
      <point x="434" y="632"/>
      <point x="342" y="632" type="curve" smooth="yes"/>
      <point x="-20" y="632" type="line"/>
      <point x="-20" y="456" type="line"/>
      <point x="344" y="456" type="line" smooth="yes"/>
      <point x="535" y="456"/>
      <point x="690" y="611"/>
      <point x="690" y="802" type="curve" smooth="yes"/>
      <point x="690" y="1588" type="line"/>
      <point x="510" y="1588" type="line"/>
    </contour>
  </outline>
</glyph>
<glyph name="uni2570" format="1">
  <advance width="1199.9"/>
  <unicode hex="2570"/>
  <outline>
    <contour>
      <point x="1220" y="456" type="line"/>
      <point x="1220" y="632" type="line"/>
      <point x="858" y="632" type="line" smooth="yes"/>
      <point x="766" y="632"/>
      <point x="690" y="706"/>
      <point x="690" y="800" type="curve" smooth="yes"/>
      <point x="690" y="1588" type="line"/>
      <point x="510" y="1588" type="line"/>
      <point x="510" y="802" type="line" smooth="yes"/>
      <point x="510" y="611"/>
      <point x="665" y="456"/>
      <point x="856" y="456" type="curve" smooth="yes"/>
    </contour>
  </outline>
</glyph>
<glyph name="uni2572" format="1">
  <advance width="1200"/>
  <unicode hex="2572"/>
  <outline>
    <contour>
      <point x="1098" y="-480" type="line"/>
      <point x="1303" y="-480" type="line"/>
      <point x="104" y="1568" type="line"/>
      <point x="-103" y="1568" type="line"/>
    </contour>
  </outline>
</glyph>
<glyph name="uni2573" format="1">
  <advance width="1200"/>
  <unicode hex="2573"/>
  <outline>
    <contour>
      <point x="1303" y="1568" type="line"/>
      <point x="1097" y="1568" type="line"/>
      <point x="600" y="720" type="line"/>
      <point x="104" y="1568" type="line"/>
      <point x="-103" y="1568" type="line"/>
      <point x="498" y="544" type="line"/>
      <point x="-103" y="-480" type="line"/>
      <point x="103" y="-480" type="line"/>
      <point x="600" y="369" type="line"/>
      <point x="1098" y="-480" type="line"/>
      <point x="1303" y="-480" type="line"/>
      <point x="703" y="544" type="line"/>
    </contour>
  </outline>
</glyph>
<glyph name="uni257A" format="1">
  <advance width="1200"/>
  <unicode hex="257A"/>
  <outline>
    <contour>
      <point x="1220" y="368" type="line"/>
      <point x="1220" y="720" type="line"/>
      <point x="600" y="720" type="line"/>
      <point x="600" y="368" type="line"/>
    </contour>
  </outline>
</glyph>
<glyph name="uni257D" format="1">
  <advance width="1200"/>
  <unicode hex="257D"/>
  <outline>
    <contour>
      <point x="510" y="1588" type="line"/>
      <point x="510" y="544" type="line"/>
      <point x="420" y="544" type="line"/>
      <point x="420" y="-500" type="line"/>
      <point x="780" y="-500" type="line"/>
      <point x="780" y="544" type="line"/>
      <point x="690" y="544" type="line"/>
      <point x="690" y="1588" type="line"/>
    </contour>
  </outline>
</glyph>
